<?xml version="1.0" standalone="no"?>
<!DOCTYPE svg PUBLIC "-//W3C//DTD SVG 20010904//EN"
 "http://www.w3.org/TR/2001/REC-SVG-20010904/DTD/svg10.dtd">
<svg version="1.0" xmlns="http://www.w3.org/2000/svg"
 width="1024.000000pt" height="1024.000000pt" viewBox="0 0 1024.000000 1024.000000"
 preserveAspectRatio="xMidYMid meet">

<g transform="translate(0.000000,1024.000000) scale(0.100000,-0.100000)"
fill="#000000" stroke="none">
<path d="M4277 8296 c-92 -33 -149 -114 -149 -210 0 -85 28 -125 139 -199 347
-231 607 -649 639 -1030 l7 -77 -99 36 c-54 19 -184 60 -289 90 -387 111 -543
168 -767 280 -81 41 -153 74 -159 74 -6 0 -64 -31 -128 -69 -646 -383 -1101
-934 -1321 -1601 -90 -271 -126 -474 -136 -775 -17 -457 71 -905 252 -1296
140 -300 212 -404 446 -636 l183 -182 35 8 c19 5 41 10 49 12 7 2 16 -2 18 -8
3 -8 -4 -13 -16 -13 -12 0 -21 -6 -21 -12 0 -9 -3 -9 -8 -3 -4 6 -20 8 -37 4
-25 -5 -26 -7 -7 -8 13 0 30 -8 38 -16 18 -18 18 -18 -24 -6 -33 10 -82 -2
-82 -20 0 -4 -6 -14 -14 -21 -206 -199 -321 -302 -333 -300 -8 2 -12 -1 -9 -6
9 -15 -4 -42 -21 -42 -13 0 -13 3 -3 15 12 14 7 19 -14 16 -15 -3 -37 22 -32
36 3 7 1 13 -4 13 -6 0 -10 7 -10 15 0 13 -20 15 -120 15 -100 0 -120 -2 -120
-15 0 -12 -15 -15 -77 -15 -85 0 -98 5 -106 35 -3 14 -5 12 -6 -10 -1 -26 -2
-28 -17 -14 -24 25 -30 120 -9 155 17 29 17 29 -2 6 -59 -71 -70 -261 -20
-358 34 -67 113 -137 185 -164 46 -18 73 -21 142 -18 142 7 170 25 402 256
113 113 196 203 193 210 -3 7 -1 11 4 8 12 -8 43 29 34 39 -5 4 -3 5 3 2 14
-8 46 26 41 44 -2 8 -2 11 0 6 3 -4 18 2 34 14 16 11 27 25 23 30 -3 5 -1 8 4
7 6 -2 10 2 10 7 1 6 -6 9 -14 9 -12 -2 -12 1 -3 13 10 11 14 11 20 2 10 -17
228 200 221 220 -2 8 0 11 6 8 5 -4 16 1 23 10 12 15 12 16 -1 8 -15 -9 -20
-11 -40 -14 -5 0 -7 -7 -4 -15 3 -9 -5 -20 -23 -28 -15 -8 -27 -19 -26 -25 1
-6 -8 -19 -20 -29 -19 -17 -20 -17 -8 -1 12 15 12 20 1 30 -10 9 -11 9 -6 0 4
-8 1 -13 -8 -13 -9 0 -16 5 -16 10 0 19 -32 10 -37 -10 -3 -10 -14 -22 -24
-25 -10 -4 -19 -13 -19 -21 0 -8 -5 -12 -10 -9 -8 5 -7 11 1 21 18 22 15 96
-5 127 -10 14 -48 49 -85 76 -37 28 -73 62 -79 76 -30 66 1 152 74 210 52 41
91 65 105 65 12 0 434 -408 434 -420 0 -4 -81 -91 -180 -195 -99 -103 -180
-192 -180 -198 0 -15 75 -72 235 -179 154 -103 417 -236 600 -303 552 -205
1262 -241 1850 -95 393 98 786 292 1085 536 l38 31 -290 289 c-197 196 -298
303 -313 334 -38 76 -26 197 25 258 14 17 25 34 25 39 0 5 -36 47 -80 95 -44
47 -80 89 -80 93 0 4 58 66 129 139 71 72 148 153 170 179 l42 49 -71 34 c-38
18 -70 35 -70 37 0 2 29 51 64 109 99 166 168 360 202 567 13 80 20 411 9 422
-2 3 -37 -1 -77 -8 -40 -7 -89 -15 -108 -18 l-35 -5 -1 -158 c-3 -288 -74
-517 -236 -763 -68 -102 -241 -273 -352 -348 -89 -60 -274 -153 -296 -149 -15
3 -788 786 -1171 1185 -101 106 -187 193 -191 193 -4 0 -7 -320 -8 -712 0
-392 -2 -714 -4 -716 -2 -2 -39 16 -82 39 -181 95 -332 212 -456 351 l-68 75
0 826 0 825 46 62 c59 80 162 180 249 242 70 50 276 158 301 158 13 0 879
-870 1544 -1550 51 -52 86 -86 77 -74 -14 17 -17 47 -17 175 l-1 154 -76 80
c-68 72 -691 706 -1277 1299 -129 131 -220 216 -223 208 -3 -7 2 -24 11 -38
13 -19 14 -25 4 -28 -370 -110 -644 -303 -842 -595 -331 -487 -359 -1175 -70
-1708 55 -101 170 -257 255 -347 34 -36 64 -75 66 -87 3 -22 3 -22 -16 -5 -12
11 -21 14 -26 7 -6 -10 1 -15 18 -12 4 0 7 -4 7 -10 0 -6 7 -8 15 -5 8 3 22 9
30 12 9 4 15 0 15 -9 0 -8 17 -30 38 -47 l37 -32 -40 28 c-22 15 -43 33 -47
38 -5 7 -8 7 -8 -1 0 -7 6 -17 13 -23 9 -9 -14 -38 -103 -129 -63 -65 -123
-124 -132 -130 -15 -11 -31 2 -125 96 -60 59 -119 120 -132 135 l-24 27 112
117 c61 65 111 120 111 124 0 12 -142 160 -153 160 -7 -1 -2 -9 11 -19 28 -24
28 -29 -5 -63 l-26 -28 -25 36 c-29 43 -112 207 -112 222 0 6 -4 12 -9 14 -13
4 -121 331 -121 366 -1 15 -7 52 -14 82 -7 30 -11 84 -9 120 2 36 0 57 -4 48
-5 -10 -7 40 -5 110 2 90 0 123 -7 112 -6 -8 -11 -26 -12 -40 -1 -16 -3 -19
-6 -8 -6 23 -32 31 -32 10 -1 -34 -13 -82 -22 -82 -5 0 -6 -7 -3 -15 4 -8 1
-15 -5 -15 -6 0 -11 -10 -12 -22 -1 -22 -1 -22 -10 2 -7 19 -7 15 -3 -15 3
-22 8 -53 9 -70 l4 -30 -9 30 c-6 20 -8 -16 -7 -114 2 -79 -1 -133 -4 -120 -4
13 -7 87 -8 165 -3 374 57 653 196 927 108 211 197 328 429 563 l80 82 -33 16
c-19 9 -44 16 -56 16 -33 0 -168 -92 -220 -150 -68 -76 -121 -85 -161 -28 -36
51 -15 98 80 188 118 110 282 200 364 200 33 0 59 11 123 50 99 61 222 110
294 117 53 6 54 5 95 -37 l41 -44 66 17 c127 32 197 40 346 40 207 0 367 -34
517 -108 l67 -34 44 25 c179 100 546 146 796 100 250 -46 500 -162 710 -330
103 -83 271 -263 337 -362 79 -118 204 -372 248 -504 76 -231 106 -428 106
-708 0 -221 -26 -432 -76 -612 -44 -159 -66 -220 -76 -214 -7 5 -8 2 -3 -5 9
-15 -20 -96 -46 -130 -10 -13 -16 -27 -13 -32 6 -11 -10 -12 -20 -1 -4 4 -19
7 -32 7 l-25 1 23 -17 c12 -10 26 -15 30 -13 4 3 8 1 8 -4 0 -10 494 -504 528
-527 19 -14 22 -12 56 42 20 32 63 112 95 178 154 314 246 628 287 985 20 178
15 565 -10 730 -71 466 -273 929 -577 1320 -167 215 -454 481 -689 637 -104
69 -278 173 -291 173 -3 0 -84 -40 -180 -88 -207 -105 -344 -157 -666 -251
-205 -60 -361 -110 -423 -135 -13 -6 -14 23 -10 231 l5 238 37 78 c38 79 42
83 68 67 9 -5 19 -5 26 1 8 7 15 6 20 -2 4 -8 3 -9 -4 -5 -7 4 -12 3 -12 -2 0
-13 64 -30 160 -41 188 -23 441 38 596 143 l37 25 -29 -3 c-16 -1 -28 -7 -27
-14 2 -6 -13 -19 -33 -28 -31 -15 -37 -15 -46 -3 -8 11 -9 11 -4 -3 7 -23 -7
-30 -64 -31 -27 0 -47 -4 -44 -9 3 -4 -1 -8 -8 -8 -10 0 -10 -2 1 -9 10 -7 8
-9 -10 -9 -13 0 -38 -4 -55 -9 -22 -8 -35 -7 -48 2 -15 12 -12 13 26 9 l43 -4
-42 11 c-24 6 -43 14 -43 20 0 20 -66 49 -112 49 -41 0 -51 5 -87 40 -39 39
-59 52 -45 28 4 -7 3 -8 -4 -4 -7 4 -12 14 -12 22 0 8 4 13 9 10 5 -3 8 16 8
43 l-1 49 -23 -26 c-13 -15 -23 -30 -23 -34 0 -5 -5 -8 -10 -8 -20 0 13 45 83
114 85 82 174 153 284 226 45 29 87 64 94 77 31 57 3 137 -55 158 -58 20 -169
-32 -346 -164 -49 -36 -118 -94 -154 -129 -40 -39 -70 -61 -77 -56 -8 5 -9 3
-4 -6 5 -8 2 -17 -6 -24 -8 -6 -36 -37 -63 -69 -48 -57 -68 -69 -46 -28 6 12
15 19 21 16 5 -4 9 -3 9 2 0 4 -15 15 -33 23 -21 10 -32 22 -33 38 -1 12 -5
26 -9 30 -4 4 -5 -41 -3 -101 4 -93 2 -111 -15 -139 l-19 -32 -57 111 c-106
204 -268 429 -407 567 -86 85 -178 113 -267 82z m1153 -676 c0 -5 -7 -10 -16
-10 -8 0 -12 5 -9 10 3 6 10 10 16 10 5 0 9 -4 9 -10z m-153 -185 c0 -8 -4
-12 -9 -9 -5 3 -6 10 -3 15 9 13 12 11 12 -6z m-2480 -2827 c-3 -7 -5 -2 -5
12 0 14 2 19 5 13 2 -7 2 -19 0 -25z m1964 -465 c118 -119 188 -197 183 -204
-4 -7 -3 -9 4 -5 13 8 84 -63 76 -76 -3 -4 0 -7 7 -6 12 3 14 -1 18 -34 1 -9
4 -8 11 2 9 13 11 13 19 0 5 -8 7 -18 5 -22 -3 -5 0 -7 8 -6 7 2 12 -4 10 -12
-2 -8 0 -12 4 -8 10 11 35 -12 27 -26 -3 -6 -3 -8 2 -4 11 11 36 -12 28 -25
-3 -5 -2 -7 4 -4 13 8 196 -177 186 -188 -4 -4 -3 -5 3 -2 7 4 37 -20 69 -54
l56 -61 -22 -24 c-25 -27 -49 -31 -49 -9 0 8 5 15 11 15 21 0 -2 19 -30 25
-34 7 -56 29 -46 46 6 8 10 8 15 -1 10 -17 58 -22 66 -8 5 7 1 9 -9 5 -11 -4
-14 -2 -10 9 5 13 -7 18 -36 15 -8 -2 -10 3 -6 11 4 7 -4 1 -18 -14 -18 -18
-33 -25 -47 -21 -11 3 -20 0 -20 -6 0 -6 9 -11 21 -11 32 0 59 -19 59 -40 0
-11 -6 -20 -12 -20 -9 0 -8 -4 2 -10 13 -8 12 -10 -2 -10 -20 0 -24 26 -5 33
6 2 9 7 6 11 -4 4 -14 0 -22 -9 -18 -18 -30 -5 -21 22 6 16 5 16 -9 -2 -9 -11
-17 -30 -17 -42 0 -20 -5 -23 -40 -23 -36 0 -40 3 -40 25 0 25 -1 25 -80 25
-62 0 -80 3 -80 14 0 10 -22 16 -80 21 -71 6 -80 9 -80 27 0 20 -5 20 -140 16
-77 -2 -140 0 -140 4 0 5 -9 8 -20 8 -22 0 -28 -35 -7 -43 6 -3 -12 -6 -40 -6
l-53 -1 -2 43 -1 42 -7 -45 -7 -45 -2 60 c-2 44 -5 55 -11 40 -5 -12 -9 183
-9 460 l-1 480 66 -70 c36 -38 151 -157 255 -262z m1223 -617 c16 -13 26 -28
22 -34 -3 -5 1 -15 9 -22 8 -7 12 -17 8 -23 -4 -6 -1 -7 6 -3 9 6 8 13 -6 29
-27 33 46 -33 81 -73 17 -19 59 -64 94 -100 47 -49 61 -70 56 -85 -3 -11 -8
-31 -11 -45 -4 -20 -2 -22 6 -10 9 13 11 13 11 -2 0 -10 -5 -18 -11 -18 -6 0
-8 -8 -5 -17 5 -16 4 -16 -8 1 -16 20 -41 13 -32 -10 4 -11 0 -11 -19 -2 -19
9 -25 19 -25 45 0 29 -3 33 -25 33 -22 0 -30 9 -26 32 0 4 -6 5 -14 2 -9 -4
-15 -11 -14 -18 5 -39 -1 -46 -41 -46 -29 0 -40 4 -40 15 0 13 -20 15 -120 15
l-120 0 0 25 c0 25 -1 25 -80 25 -76 0 -80 1 -81 23 -1 16 -2 18 -6 5 -5 -22
-23 -24 -23 -3 0 8 -4 15 -10 15 -5 0 -10 -7 -10 -15 0 -29 -19 -14 -26 20 -6
33 -8 35 -46 35 -35 0 -39 2 -36 23 2 17 9 21 28 19 17 -1 21 1 11 7 -17 11 1
23 23 15 13 -5 14 -9 5 -20 -9 -11 -6 -14 17 -13 16 0 23 3 17 6 -22 8 -14 23
13 23 15 0 23 4 19 11 -4 6 -1 9 6 8 8 -2 23 2 34 8 16 9 25 8 40 -4 19 -14
18 -15 -15 -9 -34 6 -34 5 -7 -5 22 -9 32 -8 40 1 9 10 9 14 0 17 -14 5 -18
24 -5 21 4 -1 19 4 34 10 15 6 35 9 43 5 10 -3 15 0 13 8 -2 10 5 13 21 11 13
-2 21 1 17 6 -3 5 9 15 27 22 17 7 52 23 77 36 25 13 47 23 50 23 3 0 18 -10
34 -23z m-602 -68 c-7 -7 -12 -8 -12 -2 0 14 12 26 19 19 2 -3 -1 -11 -7 -17z
m-1602 -12 c0 -2 -7 -7 -16 -10 -8 -3 -12 -2 -9 4 6 10 25 14 25 6z m-22 -47
c3 -11 2 -11 -7 1 -10 13 -14 12 -31 -9 -11 -13 -20 -20 -20 -15 0 13 33 45
44 41 5 -2 11 -10 14 -18z m692 -86 c-11 -17 -11 -17 -6 0 3 10 7 26 7 35 1
15 2 15 6 0 2 -10 -1 -25 -7 -35z m27 5 c-3 -8 -6 -5 -6 6 -1 11 2 17 5 13 3
-3 4 -12 1 -19z m-827 -2 c0 -2 -8 -10 -17 -17 -16 -13 -17 -12 -4 4 13 16 21
21 21 13z m1920 -106 c0 -5 -4 -10 -10 -10 -5 0 -10 5 -10 10 0 6 5 10 10 10
6 0 10 -4 10 -10z m617 -130 c11 0 8 -7 -11 -27 -29 -28 -52 -21 -43 13 4 16
5 15 6 -3 0 -13 5 -23 10 -23 11 0 21 26 17 43 -1 6 -1 9 1 5 3 -5 12 -8 20
-8z m-3123 -395 c-4 -8 -11 -15 -16 -15 -6 0 -5 6 2 15 7 8 14 15 16 15 2 0 1
-7 -2 -15z m-153 -43 c-7 -2 -18 1 -23 6 -8 8 -4 9 13 5 13 -4 18 -8 10 -11z
m-471 -385 c0 -2 -11 -17 -25 -33 -28 -33 -33 -26 -9 11 14 21 34 34 34 22z"/>
<path d="M5160 3686 c7 -7 13 -7 20 0 6 6 3 10 -10 10 -13 0 -16 -4 -10 -10z"/>
<path d="M5225 3639 c4 -5 2 -15 -3 -22 -8 -9 -2 -12 23 -13 19 0 32 3 29 7
-2 5 -11 6 -19 2 -11 -3 -13 -1 -10 10 4 8 -1 17 -10 21 -10 3 -14 2 -10 -5z"/>
<path d="M5283 3563 c-1 -19 1 -22 8 -12 8 12 10 12 18 -1 6 -8 12 -12 15 -9
3 3 -4 15 -17 27 l-22 21 -2 -26z"/>
<path d="M5232 3517 c15 -15 48 -29 48 -21 0 12 -29 34 -45 34 -14 0 -14 -2
-3 -13z"/>
<path d="M5125 3510 c3 -5 23 -10 43 -9 30 0 33 2 17 9 -28 12 -67 12 -60 0z"/>
<path d="M5310 3469 c0 -5 5 -7 10 -4 6 3 10 8 10 11 0 2 -4 4 -10 4 -5 0 -10
-5 -10 -11z"/>
<path d="M5426 3431 c-4 -5 3 -15 15 -21 27 -15 31 -10 9 13 -11 11 -20 14
-24 8z"/>
<path d="M5935 3531 c-7 -12 12 -24 25 -16 11 7 4 25 -10 25 -5 0 -11 -4 -15
-9z"/>
<path d="M5869 3488 c-11 -8 -10 -9 3 -4 10 3 20 1 23 -4 8 -12 25 -13 25 -1
0 13 -36 20 -51 9z"/>
<path d="M5822 3481 c-11 -7 -11 -9 0 -14 9 -3 15 1 15 9 0 8 -1 14 -1 14 -1
0 -7 -4 -14 -9z"/>
<path d="M5898 3443 c7 -3 16 -2 19 1 4 3 -2 6 -13 5 -11 0 -14 -3 -6 -6z"/>
<path d="M5600 3380 c0 -5 6 -11 13 -13 10 -4 10 -6 0 -6 -21 -2 -14 -21 7
-21 11 0 20 5 20 11 0 7 12 9 33 6 21 -4 25 -3 12 2 -49 20 -85 29 -85 21z"/>
<path d="M6095 3370 c-3 -6 1 -7 9 -4 18 7 21 14 7 14 -6 0 -13 -4 -16 -10z"/>
<path d="M6084 3327 c3 -10 6 -25 6 -33 0 -8 7 -14 15 -14 9 0 12 6 8 16 -5
12 0 15 23 12 24 -2 29 -7 27 -28 -1 -14 1 -19 3 -12 8 17 24 15 24 -3 0 -15
33 -38 42 -29 6 6 -61 75 -89 91 -16 9 -23 9 -32 0 -9 -9 -14 -8 -22 3 -9 12
-10 12 -5 -3z"/>
<path d="M5680 3290 c0 -5 7 -10 16 -10 8 0 12 5 9 10 -3 6 -10 10 -16 10 -5
0 -9 -4 -9 -10z"/>
<path d="M6134 3258 c-14 -17 -15 -58 -3 -58 6 0 7 5 4 10 -3 6 -1 10 4 10 6
0 11 -4 11 -10 0 -5 4 -10 10 -10 5 0 7 8 3 18 -6 16 -5 16 13 1 21 -18 66
-19 71 -2 3 7 -4 9 -17 6 -12 -3 -29 2 -40 12 -11 10 -20 14 -20 10 0 -5 -6
-1 -13 9 -11 15 -15 15 -23 4z"/>
<path d="M5787 3224 c-13 -13 -7 -24 14 -24 11 0 19 5 17 12 -5 14 -22 21 -31
12z"/>
<path d="M5062 7910 c0 -14 2 -19 5 -12 2 6 2 18 0 25 -3 6 -5 1 -5 -13z"/>
<path d="M5080 7760 c8 -5 22 -9 30 -9 10 0 8 3 -5 9 -27 12 -43 12 -25 0z"/>
<path d="M6096 7555 c-11 -8 -15 -15 -9 -15 6 0 16 7 23 15 16 19 11 19 -14 0z"/>
<path d="M5730 7424 c29 -9 47 -11 54 -4 6 6 6 10 1 11 -6 0 -30 1 -55 3 l-45
3 45 -13z"/>
<path d="M2901 5184 c0 -11 3 -14 6 -6 3 7 2 16 -1 19 -3 4 -6 -2 -5 -13z"/>
<path d="M2880 5135 c0 -5 5 -17 10 -25 5 -8 10 -10 10 -5 0 6 -5 17 -10 25
-5 8 -10 11 -10 5z"/>
<path d="M2946 4555 c4 -17 13 -47 20 -69 8 -21 11 -42 8 -47 -3 -5 -1 -9 5
-9 6 0 8 -6 5 -14 -3 -8 -1 -17 5 -21 17 -10 13 19 -15 102 -27 81 -41 109
-28 58z"/>
<path d="M3050 4267 c0 -8 6 -20 14 -26 12 -10 13 -8 9 9 -7 25 -23 37 -23 17z"/>
<path d="M3320 3955 c7 -8 17 -15 22 -15 6 0 5 7 -2 15 -7 8 -17 15 -22 15 -6
0 -5 -7 2 -15z"/>
<path d="M3376 3927 c3 -10 9 -15 12 -12 3 3 0 11 -7 18 -10 9 -11 8 -5 -6z"/>
<path d="M3350 3920 c0 -5 5 -10 11 -10 5 0 7 5 4 10 -3 6 -8 10 -11 10 -2 0
-4 -4 -4 -10z"/>
<path d="M6610 3886 c0 -2 8 -10 18 -17 15 -13 16 -12 3 4 -13 16 -21 21 -21
13z"/>
<path d="M3425 3831 c-6 -11 13 -26 22 -17 4 3 1 6 -6 6 -7 0 -9 5 -6 10 3 6
4 10 1 10 -3 0 -7 -4 -11 -9z"/>
<path d="M6811 3791 c-9 -6 1 -10 33 -12 25 -2 46 -1 46 3 0 5 -6 8 -12 8 -7
0 -22 3 -33 5 -11 3 -26 1 -34 -4z"/>
<path d="M6738 3773 c7 -3 16 -2 19 1 4 3 -2 6 -13 5 -11 0 -14 -3 -6 -6z"/>
<path d="M3525 3759 c-4 -6 -14 -8 -24 -5 -11 4 -10 2 3 -7 10 -7 26 -20 35
-29 8 -10 22 -18 30 -18 10 0 8 6 -7 18 -17 15 -19 21 -9 31 9 10 8 11 -7 5
-13 -5 -17 -4 -12 4 4 7 5 12 2 12 -3 0 -8 -5 -11 -11z"/>
<path d="M3570 3737 c0 -3 12 -12 26 -22 15 -9 23 -12 20 -6 -7 11 -46 35 -46
28z"/>
<path d="M6512 3334 c-7 -8 -10 -19 -7 -24 11 -18 23 -10 23 15 0 14 -1 25 -2
25 0 -1 -7 -7 -14 -16z"/>
<path d="M6482 3304 c3 -3 -5 -16 -19 -30 -14 -14 -22 -31 -19 -40 3 -8 2 -13
-3 -10 -5 3 -8 -6 -8 -19 0 -14 4 -25 9 -25 5 0 6 -4 3 -10 -3 -5 1 -20 9 -32
11 -16 26 -22 57 -22 42 -1 43 -2 43 -36 1 -25 -3 -34 -14 -32 -7 2 114 -122
269 -275 156 -153 289 -278 295 -278 6 0 11 -7 11 -15 1 -8 7 -14 14 -12 7 1
10 -1 7 -6 -7 -12 148 -164 159 -155 4 4 5 3 2 -3 -6 -11 216 -236 268 -271
114 -77 290 -71 407 14 41 30 112 109 81 90 -7 -4 -15 -2 -19 4 -4 8 -9 7 -16
-2 -8 -11 -9 -11 -5 1 2 8 14 14 25 14 26 -2 29 11 5 20 -13 5 -14 9 -4 19 9
9 14 9 21 -3 9 -13 11 -13 20 0 5 8 10 20 10 25 0 6 -4 4 -9 -4 -8 -12 -12
-12 -25 -2 -10 9 -16 9 -16 3 0 -7 -14 -9 -35 -7 -24 4 -33 1 -30 -8 3 -7 -4
-13 -17 -13 -13 -1 -43 -9 -68 -19 -62 -24 -149 -30 -196 -15 -63 21 -107 58
-324 270 -121 119 -210 198 -218 195 -7 -3 -10 0 -6 6 8 14 -55 79 -71 73 -8
-3 -12 2 -12 13 1 11 -4 18 -15 17 -10 -1 -15 2 -12 7 8 14 -25 42 -42 35 -11
-4 -14 0 -12 16 2 11 -3 23 -11 26 -9 3 -11 0 -6 -8 6 -9 3 -9 -14 0 -12 6
-20 19 -19 28 2 11 -3 16 -16 15 -22 -2 -72 54 -68 76 3 12 1 13 -12 2 -13
-11 -17 -11 -22 3 -3 9 -12 16 -20 16 -7 0 -18 9 -24 21 -19 34 -44 54 -64 51
-25 -5 -41 21 -18 30 11 5 7 7 -13 5 -28 -2 -30 0 -28 28 2 20 0 26 -6 16 -13
-20 -41 -6 -41 20 0 16 -5 20 -20 16 -17 -4 -20 0 -21 26 -1 18 -1 35 0 40 0
4 -6 7 -14 7 -8 0 -15 6 -15 13 0 8 -4 7 -10 -3 -5 -8 -10 -10 -10 -4 0 6 7
17 15 24 22 19 18 46 -10 64 -23 15 -44 22 -33 10z m37 -42 c0 -11 -3 -12 -6
-4 -7 17 -23 15 -23 -2 0 -8 -5 -18 -11 -22 -7 -4 -9 2 -7 17 5 38 49 48 47
11z m71 -226 c0 -2 -7 -7 -16 -10 -8 -3 -12 -2 -9 4 6 10 25 14 25 6z m32 -8
c-17 -17 -15 -31 3 -24 8 3 15 2 15 -3 0 -18 38 -51 53 -45 8 3 18 0 23 -7 5
-8 3 -10 -6 -4 -10 6 -12 2 -8 -18 4 -18 1 -24 -9 -20 -7 3 -13 8 -13 13 0 12
-37 50 -42 44 -3 -3 -16 7 -28 23 -20 26 -20 28 -4 40 22 16 32 17 16 1z m176
-212 c8 -18 17 -22 43 -21 29 2 30 1 14 -12 -16 -11 -17 -15 -4 -25 8 -7 23
-24 34 -38 10 -14 2 -8 -19 12 -21 21 -35 42 -31 48 4 7 1 10 -8 8 -12 -2 -67
44 -67 57 0 13 29 -10 38 -29z m152 -130 c0 -3 -4 -8 -10 -11 -5 -3 -10 -1
-10 4 0 6 5 11 10 11 6 0 10 -2 10 -4z m15 -46 c10 -11 16 -20 13 -20 -3 0
-13 9 -23 20 -10 11 -16 20 -13 20 3 0 13 -9 23 -20z m80 -80 c10 -11 16 -20
13 -20 -3 0 -13 9 -23 20 -10 11 -16 20 -13 20 3 0 13 -9 23 -20z"/>
<path d="M6545 3220 c3 -5 8 -10 11 -10 2 0 4 5 4 10 0 6 -5 10 -11 10 -5 0
-7 -4 -4 -10z"/>
<path d="M6490 3099 c-13 -9 -12 -10 2 -5 10 3 20 1 23 -4 4 -6 1 -10 -5 -10
-6 0 -8 -4 -5 -10 4 -6 11 -5 20 3 9 8 10 16 3 25 -13 15 -19 15 -38 1z"/>
<path d="M6796 2962 c-3 -5 1 -9 9 -9 8 0 12 4 9 9 -3 4 -7 8 -9 8 -2 0 -6 -4
-9 -8z"/>
<path d="M6860 2905 c0 -9 38 -43 43 -38 3 2 -3 13 -14 24 -19 19 -29 24 -29
14z"/>
<path d="M3080 2871 c0 -14 5 -19 15 -14 17 6 15 25 -3 31 -7 2 -12 -5 -12
-17z"/>
<path d="M3035 2840 c2 -14 5 -31 5 -38 0 -10 3 -10 13 0 17 15 18 38 1 38 -7
0 -15 6 -18 13 -4 6 -4 1 -1 -13z"/>
<path d="M6940 2820 c0 -5 5 -10 10 -10 6 0 10 5 10 10 0 6 -4 10 -10 10 -5 0
-10 -4 -10 -10z"/>
<path d="M2044 2638 l-29 -33 33 29 c30 28 37 36 29 36 -2 0 -16 -15 -33 -32z"/>
<path d="M1974 2568 l-19 -23 23 19 c21 18 27 26 19 26 -2 0 -12 -10 -23 -22z"/>
<path d="M2490 2383 c1 -18 18 -35 24 -24 4 6 4 16 1 21 -7 12 -25 13 -25 3z"/>
</g>
</svg>
